<mxfile host="app.diagrams.net" modified="2023-09-29T04:22:11.269Z" agent="Mozilla/5.0 (Windows NT 10.0; Win64; x64) AppleWebKit/537.36 (KHTML, like Gecko) Chrome/117.0.0.0 Safari/537.36" etag="3eqAilkitYIz_BS2N0r4" version="21.8.2" type="github">
  <diagram name="Page-1" id="bFyohk98UVx0A0L0YPai">
    <mxGraphModel dx="1520" dy="760" grid="1" gridSize="10" guides="1" tooltips="1" connect="1" arrows="1" fold="1" page="1" pageScale="1" pageWidth="827" pageHeight="1169" math="0" shadow="0">
      <root>
        <mxCell id="0" />
        <mxCell id="1" parent="0" />
        <mxCell id="iqH3MTrl0i2l536LmZJD-31" value="" style="verticalLabelPosition=bottom;html=1;verticalAlign=top;align=center;strokeColor=none;fillColor=#00BEF2;shape=mxgraph.azure.virtual_machine;" parent="1" vertex="1">
          <mxGeometry x="420" y="80" width="360" height="330" as="geometry" />
        </mxCell>
        <mxCell id="PHRj3SiCaP4NHkSzy3cH-14" style="edgeStyle=orthogonalEdgeStyle;rounded=0;orthogonalLoop=1;jettySize=auto;html=1;entryX=0;entryY=0.5;entryDx=0;entryDy=0;" edge="1" parent="1" source="iqH3MTrl0i2l536LmZJD-32" target="PHRj3SiCaP4NHkSzy3cH-11">
          <mxGeometry relative="1" as="geometry" />
        </mxCell>
        <mxCell id="PHRj3SiCaP4NHkSzy3cH-22" style="edgeStyle=orthogonalEdgeStyle;rounded=0;orthogonalLoop=1;jettySize=auto;html=1;" edge="1" parent="1" source="iqH3MTrl0i2l536LmZJD-32" target="PHRj3SiCaP4NHkSzy3cH-19">
          <mxGeometry relative="1" as="geometry" />
        </mxCell>
        <mxCell id="iqH3MTrl0i2l536LmZJD-32" value="Product&amp;nbsp; Service [5001]" style="rounded=0;whiteSpace=wrap;html=1;" parent="1" vertex="1">
          <mxGeometry x="430" y="90" width="100" height="50" as="geometry" />
        </mxCell>
        <mxCell id="iqH3MTrl0i2l536LmZJD-33" value="" style="verticalLabelPosition=bottom;html=1;verticalAlign=top;align=center;strokeColor=none;fillColor=#00BEF2;shape=mxgraph.azure.virtual_machine;" parent="1" vertex="1">
          <mxGeometry x="800" y="140" width="240" height="150" as="geometry" />
        </mxCell>
        <mxCell id="iqH3MTrl0i2l536LmZJD-35" value="Order Service [5002]" style="rounded=0;whiteSpace=wrap;html=1;" parent="1" vertex="1">
          <mxGeometry x="430" y="220" width="90" height="60" as="geometry" />
        </mxCell>
        <mxCell id="PHRj3SiCaP4NHkSzy3cH-15" style="edgeStyle=orthogonalEdgeStyle;rounded=0;orthogonalLoop=1;jettySize=auto;html=1;entryX=0.25;entryY=1;entryDx=0;entryDy=0;" edge="1" parent="1" source="iqH3MTrl0i2l536LmZJD-36" target="PHRj3SiCaP4NHkSzy3cH-11">
          <mxGeometry relative="1" as="geometry" />
        </mxCell>
        <mxCell id="iqH3MTrl0i2l536LmZJD-36" value="Cart Service[5003]" style="rounded=0;whiteSpace=wrap;html=1;" parent="1" vertex="1">
          <mxGeometry x="440" y="310" width="80" height="40" as="geometry" />
        </mxCell>
        <mxCell id="iqH3MTrl0i2l536LmZJD-37" value="" style="rounded=0;whiteSpace=wrap;html=1;fillColor=#dae8fc;strokeColor=#6c8ebf;" parent="1" vertex="1">
          <mxGeometry x="155" y="180" width="70" height="430" as="geometry" />
        </mxCell>
        <mxCell id="iqH3MTrl0i2l536LmZJD-38" value="" style="sketch=0;points=[[0,0,0],[0.25,0,0],[0.5,0,0],[0.75,0,0],[1,0,0],[0,1,0],[0.25,1,0],[0.5,1,0],[0.75,1,0],[1,1,0],[0,0.25,0],[0,0.5,0],[0,0.75,0],[1,0.25,0],[1,0.5,0],[1,0.75,0]];outlineConnect=0;fontColor=#232F3E;fillColor=#8C4FFF;strokeColor=#ffffff;dashed=0;verticalLabelPosition=bottom;verticalAlign=top;align=center;html=1;fontSize=12;fontStyle=0;aspect=fixed;shape=mxgraph.aws4.resourceIcon;resIcon=mxgraph.aws4.api_gateway;" parent="1" vertex="1">
          <mxGeometry x="163" y="275" width="54" height="54" as="geometry" />
        </mxCell>
        <mxCell id="iqH3MTrl0i2l536LmZJD-39" value="products -&amp;gt; 5001&lt;br&gt;order -&amp;gt; 5002" style="text;html=1;strokeColor=none;fillColor=none;align=center;verticalAlign=middle;whiteSpace=wrap;rounded=0;" parent="1" vertex="1">
          <mxGeometry x="150" y="334" width="122" height="30" as="geometry" />
        </mxCell>
        <mxCell id="iqH3MTrl0i2l536LmZJD-72" value="" style="strokeWidth=2;html=1;shape=mxgraph.flowchart.database;whiteSpace=wrap;" parent="1" vertex="1">
          <mxGeometry x="820" y="245" width="30" height="30" as="geometry" />
        </mxCell>
        <mxCell id="iqH3MTrl0i2l536LmZJD-74" style="edgeStyle=orthogonalEdgeStyle;rounded=0;orthogonalLoop=1;jettySize=auto;html=1;entryX=0;entryY=0.5;entryDx=0;entryDy=0;entryPerimeter=0;" parent="1" source="PHRj3SiCaP4NHkSzy3cH-11" target="iqH3MTrl0i2l536LmZJD-72" edge="1">
          <mxGeometry relative="1" as="geometry" />
        </mxCell>
        <mxCell id="iqH3MTrl0i2l536LmZJD-75" style="edgeStyle=orthogonalEdgeStyle;rounded=0;orthogonalLoop=1;jettySize=auto;html=1;entryX=0;entryY=0.5;entryDx=0;entryDy=0;entryPerimeter=0;exitX=1;exitY=0.5;exitDx=0;exitDy=0;" parent="1" target="iqH3MTrl0i2l536LmZJD-76" edge="1" source="iqH3MTrl0i2l536LmZJD-32">
          <mxGeometry relative="1" as="geometry">
            <mxPoint x="709.9999999999995" y="164.99999999999977" as="sourcePoint" />
            <mxPoint x="697.8799999999997" y="160.40999999999985" as="targetPoint" />
            <Array as="points">
              <mxPoint x="600" y="115" />
              <mxPoint x="600" y="165" />
            </Array>
          </mxGeometry>
        </mxCell>
        <mxCell id="iqH3MTrl0i2l536LmZJD-76" value="" style="strokeWidth=2;html=1;shape=mxgraph.flowchart.database;whiteSpace=wrap;" parent="1" vertex="1">
          <mxGeometry x="820" y="150" width="30" height="30" as="geometry" />
        </mxCell>
        <mxCell id="iqH3MTrl0i2l536LmZJD-77" value="" style="verticalLabelPosition=bottom;html=1;verticalAlign=top;align=center;strokeColor=none;fillColor=#00BEF2;shape=mxgraph.azure.virtual_machine;" parent="1" vertex="1">
          <mxGeometry x="1130" y="140" width="240" height="150" as="geometry" />
        </mxCell>
        <mxCell id="iqH3MTrl0i2l536LmZJD-78" value="" style="strokeWidth=2;html=1;shape=mxgraph.flowchart.database;whiteSpace=wrap;" parent="1" vertex="1">
          <mxGeometry x="1150" y="245" width="30" height="30" as="geometry" />
        </mxCell>
        <mxCell id="iqH3MTrl0i2l536LmZJD-79" value="" style="strokeWidth=2;html=1;shape=mxgraph.flowchart.database;whiteSpace=wrap;" parent="1" vertex="1">
          <mxGeometry x="1150" y="150" width="30" height="30" as="geometry" />
        </mxCell>
        <mxCell id="iqH3MTrl0i2l536LmZJD-81" style="edgeStyle=orthogonalEdgeStyle;rounded=0;orthogonalLoop=1;jettySize=auto;html=1;startArrow=classic;startFill=1;" parent="1" source="iqH3MTrl0i2l536LmZJD-72" target="iqH3MTrl0i2l536LmZJD-78" edge="1">
          <mxGeometry relative="1" as="geometry" />
        </mxCell>
        <mxCell id="iqH3MTrl0i2l536LmZJD-80" style="edgeStyle=orthogonalEdgeStyle;rounded=0;orthogonalLoop=1;jettySize=auto;html=1;startArrow=classic;startFill=1;" parent="1" source="iqH3MTrl0i2l536LmZJD-76" target="iqH3MTrl0i2l536LmZJD-79" edge="1">
          <mxGeometry relative="1" as="geometry" />
        </mxCell>
        <mxCell id="iqH3MTrl0i2l536LmZJD-95" value="&lt;h1&gt;Side car&lt;/h1&gt;" style="text;html=1;strokeColor=none;fillColor=none;spacing=5;spacingTop=-20;whiteSpace=wrap;overflow=hidden;rounded=0;" parent="1" vertex="1">
          <mxGeometry x="100" y="90" width="180" height="50" as="geometry" />
        </mxCell>
        <mxCell id="iqH3MTrl0i2l536LmZJD-99" style="edgeStyle=orthogonalEdgeStyle;rounded=0;orthogonalLoop=1;jettySize=auto;html=1;entryX=-0.005;entryY=0.459;entryDx=0;entryDy=0;entryPerimeter=0;" parent="1" source="iqH3MTrl0i2l536LmZJD-97" target="iqH3MTrl0i2l536LmZJD-31" edge="1">
          <mxGeometry relative="1" as="geometry" />
        </mxCell>
        <mxCell id="iqH3MTrl0i2l536LmZJD-97" value="" style="outlineConnect=0;dashed=0;verticalLabelPosition=bottom;verticalAlign=top;align=center;html=1;shape=mxgraph.aws3.application_load_balancer;fillColor=#F58534;gradientColor=none;" parent="1" vertex="1">
          <mxGeometry x="310" y="334" width="69" height="72" as="geometry" />
        </mxCell>
        <mxCell id="iqH3MTrl0i2l536LmZJD-98" style="edgeStyle=orthogonalEdgeStyle;rounded=0;orthogonalLoop=1;jettySize=auto;html=1;exitX=0.75;exitY=1;exitDx=0;exitDy=0;entryX=0;entryY=0.5;entryDx=0;entryDy=0;entryPerimeter=0;" parent="1" source="iqH3MTrl0i2l536LmZJD-39" target="iqH3MTrl0i2l536LmZJD-97" edge="1">
          <mxGeometry relative="1" as="geometry" />
        </mxCell>
        <mxCell id="PHRj3SiCaP4NHkSzy3cH-1" value="Datadog" style="rounded=0;whiteSpace=wrap;html=1;" vertex="1" parent="1">
          <mxGeometry x="890" y="620" width="120" height="60" as="geometry" />
        </mxCell>
        <mxCell id="PHRj3SiCaP4NHkSzy3cH-30" style="edgeStyle=orthogonalEdgeStyle;rounded=0;orthogonalLoop=1;jettySize=auto;html=1;entryX=1;entryY=0.5;entryDx=0;entryDy=0;" edge="1" parent="1" source="PHRj3SiCaP4NHkSzy3cH-2" target="PHRj3SiCaP4NHkSzy3cH-26">
          <mxGeometry relative="1" as="geometry" />
        </mxCell>
        <mxCell id="PHRj3SiCaP4NHkSzy3cH-2" value="AWS CloudLogs" style="rounded=0;whiteSpace=wrap;html=1;" vertex="1" parent="1">
          <mxGeometry x="890" y="520" width="120" height="60" as="geometry" />
        </mxCell>
        <mxCell id="PHRj3SiCaP4NHkSzy3cH-3" value="Azure Monitor [Endpoint]" style="rounded=0;whiteSpace=wrap;html=1;" vertex="1" parent="1">
          <mxGeometry x="880" y="420" width="120" height="60" as="geometry" />
        </mxCell>
        <mxCell id="PHRj3SiCaP4NHkSzy3cH-13" style="edgeStyle=orthogonalEdgeStyle;rounded=0;orthogonalLoop=1;jettySize=auto;html=1;entryX=0;entryY=0.5;entryDx=0;entryDy=0;entryPerimeter=0;" edge="1" parent="1" source="PHRj3SiCaP4NHkSzy3cH-11" target="iqH3MTrl0i2l536LmZJD-76">
          <mxGeometry relative="1" as="geometry" />
        </mxCell>
        <mxCell id="PHRj3SiCaP4NHkSzy3cH-17" value="" style="edgeStyle=orthogonalEdgeStyle;rounded=0;orthogonalLoop=1;jettySize=auto;html=1;entryX=0;entryY=0.5;entryDx=0;entryDy=0;entryPerimeter=0;" edge="1" parent="1" source="iqH3MTrl0i2l536LmZJD-32" target="PHRj3SiCaP4NHkSzy3cH-11">
          <mxGeometry relative="1" as="geometry">
            <mxPoint x="580" y="165" as="sourcePoint" />
            <mxPoint x="820" y="165" as="targetPoint" />
          </mxGeometry>
        </mxCell>
        <mxCell id="PHRj3SiCaP4NHkSzy3cH-18" value="" style="edgeStyle=orthogonalEdgeStyle;rounded=0;orthogonalLoop=1;jettySize=auto;html=1;entryX=0;entryY=0.5;entryDx=0;entryDy=0;entryPerimeter=0;" edge="1" parent="1" source="iqH3MTrl0i2l536LmZJD-36" target="PHRj3SiCaP4NHkSzy3cH-11">
          <mxGeometry relative="1" as="geometry">
            <mxPoint x="570" y="260" as="sourcePoint" />
            <mxPoint x="820" y="260" as="targetPoint" />
          </mxGeometry>
        </mxCell>
        <mxCell id="PHRj3SiCaP4NHkSzy3cH-29" style="edgeStyle=orthogonalEdgeStyle;rounded=0;orthogonalLoop=1;jettySize=auto;html=1;entryX=0.5;entryY=0;entryDx=0;entryDy=0;" edge="1" parent="1" source="PHRj3SiCaP4NHkSzy3cH-11" target="PHRj3SiCaP4NHkSzy3cH-26">
          <mxGeometry relative="1" as="geometry">
            <Array as="points">
              <mxPoint x="740" y="215" />
              <mxPoint x="740" y="377" />
              <mxPoint x="754" y="377" />
            </Array>
          </mxGeometry>
        </mxCell>
        <mxCell id="PHRj3SiCaP4NHkSzy3cH-11" value="Log Agent" style="rounded=1;whiteSpace=wrap;html=1;" vertex="1" parent="1">
          <mxGeometry x="620" y="215" width="84" height="30" as="geometry" />
        </mxCell>
        <mxCell id="PHRj3SiCaP4NHkSzy3cH-19" value="MySQL Logger Agent" style="rounded=1;whiteSpace=wrap;html=1;" vertex="1" parent="1">
          <mxGeometry x="640" y="100" width="84" height="30" as="geometry" />
        </mxCell>
        <mxCell id="PHRj3SiCaP4NHkSzy3cH-26" value="AWS CloudServer" style="rounded=0;whiteSpace=wrap;html=1;" vertex="1" parent="1">
          <mxGeometry x="694" y="524" width="120" height="60" as="geometry" />
        </mxCell>
        <mxCell id="PHRj3SiCaP4NHkSzy3cH-27" value="" style="shape=cylinder3;whiteSpace=wrap;html=1;boundedLbl=1;backgroundOutline=1;size=15;" vertex="1" parent="1">
          <mxGeometry x="734" y="620" width="40" height="60" as="geometry" />
        </mxCell>
        <mxCell id="PHRj3SiCaP4NHkSzy3cH-28" style="edgeStyle=orthogonalEdgeStyle;rounded=0;orthogonalLoop=1;jettySize=auto;html=1;entryX=0.5;entryY=0;entryDx=0;entryDy=0;entryPerimeter=0;" edge="1" parent="1" source="PHRj3SiCaP4NHkSzy3cH-26" target="PHRj3SiCaP4NHkSzy3cH-27">
          <mxGeometry relative="1" as="geometry" />
        </mxCell>
        <mxCell id="PHRj3SiCaP4NHkSzy3cH-31" value="AWS CloudWatcher" style="rounded=0;whiteSpace=wrap;html=1;" vertex="1" parent="1">
          <mxGeometry x="1060" y="520" width="120" height="60" as="geometry" />
        </mxCell>
        <mxCell id="PHRj3SiCaP4NHkSzy3cH-32" value="&lt;h1&gt;Retry&lt;/h1&gt;&lt;div&gt;&lt;span style=&quot;background-color: initial;&quot;&gt;1. no of re-try : 3&lt;/span&gt;&lt;/div&gt;&lt;div&gt;&lt;span style=&quot;background-color: initial;&quot;&gt;2. sleep time : 10 sec&lt;/span&gt;&lt;/div&gt;" style="text;html=1;strokeColor=none;fillColor=none;spacing=5;spacingTop=-20;whiteSpace=wrap;overflow=hidden;rounded=0;" vertex="1" parent="1">
          <mxGeometry x="50" y="790" width="240" height="140" as="geometry" />
        </mxCell>
        <mxCell id="PHRj3SiCaP4NHkSzy3cH-33" value="" style="verticalLabelPosition=bottom;html=1;verticalAlign=top;align=center;strokeColor=none;fillColor=#00BEF2;shape=mxgraph.azure.virtual_machine;" vertex="1" parent="1">
          <mxGeometry x="315.5" y="870" width="694.5" height="500" as="geometry" />
        </mxCell>
        <mxCell id="PHRj3SiCaP4NHkSzy3cH-46" style="edgeStyle=orthogonalEdgeStyle;rounded=0;orthogonalLoop=1;jettySize=auto;html=1;entryX=0;entryY=0.25;entryDx=0;entryDy=0;" edge="1" parent="1" source="PHRj3SiCaP4NHkSzy3cH-36" target="PHRj3SiCaP4NHkSzy3cH-39">
          <mxGeometry relative="1" as="geometry" />
        </mxCell>
        <mxCell id="PHRj3SiCaP4NHkSzy3cH-48" value="Https://kyocera.com/apt/v1/cart/order/id" style="edgeLabel;html=1;align=center;verticalAlign=middle;resizable=0;points=[];" vertex="1" connectable="0" parent="PHRj3SiCaP4NHkSzy3cH-46">
          <mxGeometry x="-0.4121" relative="1" as="geometry">
            <mxPoint x="24" y="-50" as="offset" />
          </mxGeometry>
        </mxCell>
        <mxCell id="PHRj3SiCaP4NHkSzy3cH-50" style="edgeStyle=orthogonalEdgeStyle;rounded=0;orthogonalLoop=1;jettySize=auto;html=1;entryX=0.5;entryY=0;entryDx=0;entryDy=0;" edge="1" parent="1" source="PHRj3SiCaP4NHkSzy3cH-36" target="PHRj3SiCaP4NHkSzy3cH-37">
          <mxGeometry relative="1" as="geometry" />
        </mxCell>
        <mxCell id="PHRj3SiCaP4NHkSzy3cH-55" value="Message" style="edgeLabel;html=1;align=center;verticalAlign=middle;resizable=0;points=[];" vertex="1" connectable="0" parent="PHRj3SiCaP4NHkSzy3cH-50">
          <mxGeometry x="-0.3862" y="-1" relative="1" as="geometry">
            <mxPoint as="offset" />
          </mxGeometry>
        </mxCell>
        <mxCell id="PHRj3SiCaP4NHkSzy3cH-36" value="Product&amp;nbsp; Service [5001]" style="rounded=0;whiteSpace=wrap;html=1;" vertex="1" parent="1">
          <mxGeometry x="340" y="900" width="180" height="140" as="geometry" />
        </mxCell>
        <mxCell id="PHRj3SiCaP4NHkSzy3cH-56" style="edgeStyle=orthogonalEdgeStyle;rounded=0;orthogonalLoop=1;jettySize=auto;html=1;" edge="1" parent="1" source="PHRj3SiCaP4NHkSzy3cH-37" target="PHRj3SiCaP4NHkSzy3cH-45">
          <mxGeometry relative="1" as="geometry" />
        </mxCell>
        <mxCell id="PHRj3SiCaP4NHkSzy3cH-57" value="message" style="edgeLabel;html=1;align=center;verticalAlign=middle;resizable=0;points=[];" vertex="1" connectable="0" parent="PHRj3SiCaP4NHkSzy3cH-56">
          <mxGeometry x="0.2382" y="3" relative="1" as="geometry">
            <mxPoint as="offset" />
          </mxGeometry>
        </mxCell>
        <mxCell id="PHRj3SiCaP4NHkSzy3cH-58" style="edgeStyle=orthogonalEdgeStyle;rounded=0;orthogonalLoop=1;jettySize=auto;html=1;" edge="1" parent="1" source="PHRj3SiCaP4NHkSzy3cH-37" target="PHRj3SiCaP4NHkSzy3cH-39">
          <mxGeometry relative="1" as="geometry">
            <Array as="points">
              <mxPoint x="420" y="1160" />
              <mxPoint x="906" y="1160" />
            </Array>
          </mxGeometry>
        </mxCell>
        <mxCell id="PHRj3SiCaP4NHkSzy3cH-59" value="mesage" style="edgeLabel;html=1;align=center;verticalAlign=middle;resizable=0;points=[];" vertex="1" connectable="0" parent="PHRj3SiCaP4NHkSzy3cH-58">
          <mxGeometry x="-0.0857" y="-4" relative="1" as="geometry">
            <mxPoint as="offset" />
          </mxGeometry>
        </mxCell>
        <mxCell id="PHRj3SiCaP4NHkSzy3cH-37" value="Order Service [5002]" style="rounded=0;whiteSpace=wrap;html=1;" vertex="1" parent="1">
          <mxGeometry x="350" y="1210" width="140" height="70" as="geometry" />
        </mxCell>
        <mxCell id="PHRj3SiCaP4NHkSzy3cH-47" style="edgeStyle=orthogonalEdgeStyle;rounded=0;orthogonalLoop=1;jettySize=auto;html=1;entryX=1;entryY=0.75;entryDx=0;entryDy=0;" edge="1" parent="1" source="PHRj3SiCaP4NHkSzy3cH-39" target="PHRj3SiCaP4NHkSzy3cH-36">
          <mxGeometry relative="1" as="geometry">
            <Array as="points">
              <mxPoint x="740" y="1005" />
              <mxPoint x="740" y="1005" />
            </Array>
          </mxGeometry>
        </mxCell>
        <mxCell id="PHRj3SiCaP4NHkSzy3cH-49" value="response {&amp;nbsp; &quot;Orderid &quot; : &quot;1&quot; }" style="edgeLabel;html=1;align=center;verticalAlign=middle;resizable=0;points=[];" vertex="1" connectable="0" parent="PHRj3SiCaP4NHkSzy3cH-47">
          <mxGeometry x="0.0655" y="-2" relative="1" as="geometry">
            <mxPoint as="offset" />
          </mxGeometry>
        </mxCell>
        <mxCell id="PHRj3SiCaP4NHkSzy3cH-39" value="Cart Service[5003]" style="rounded=0;whiteSpace=wrap;html=1;" vertex="1" parent="1">
          <mxGeometry x="813.5" y="900" width="186" height="145" as="geometry" />
        </mxCell>
        <mxCell id="PHRj3SiCaP4NHkSzy3cH-45" value="Payment Service [5005]" style="rounded=0;whiteSpace=wrap;html=1;" vertex="1" parent="1">
          <mxGeometry x="840" y="1200" width="133" height="80" as="geometry" />
        </mxCell>
        <mxCell id="PHRj3SiCaP4NHkSzy3cH-52" value="1" style="ellipse;whiteSpace=wrap;html=1;aspect=fixed;strokeWidth=2;fontFamily=Tahoma;spacingBottom=4;spacingRight=2;strokeColor=#d3d3d3;" vertex="1" parent="1">
          <mxGeometry x="620" y="950" width="20" height="20" as="geometry" />
        </mxCell>
        <mxCell id="PHRj3SiCaP4NHkSzy3cH-53" value="2" style="ellipse;whiteSpace=wrap;html=1;aspect=fixed;strokeWidth=2;fontFamily=Tahoma;spacingBottom=4;spacingRight=2;strokeColor=#d3d3d3;" vertex="1" parent="1">
          <mxGeometry x="734" y="1000" width="20" height="20" as="geometry" />
        </mxCell>
        <mxCell id="PHRj3SiCaP4NHkSzy3cH-54" value="3" style="ellipse;whiteSpace=wrap;html=1;aspect=fixed;strokeWidth=2;fontFamily=Tahoma;spacingBottom=4;spacingRight=2;strokeColor=#d3d3d3;" vertex="1" parent="1">
          <mxGeometry x="400" y="1140" width="20" height="20" as="geometry" />
        </mxCell>
        <mxCell id="PHRj3SiCaP4NHkSzy3cH-60" value="4" style="ellipse;whiteSpace=wrap;html=1;aspect=fixed;strokeWidth=2;fontFamily=Tahoma;spacingBottom=4;spacingRight=2;strokeColor=#d3d3d3;" vertex="1" parent="1">
          <mxGeometry x="520" y="1160" width="20" height="20" as="geometry" />
        </mxCell>
        <mxCell id="PHRj3SiCaP4NHkSzy3cH-61" value="5" style="ellipse;whiteSpace=wrap;html=1;aspect=fixed;strokeWidth=2;fontFamily=Tahoma;spacingBottom=4;spacingRight=2;strokeColor=#d3d3d3;" vertex="1" parent="1">
          <mxGeometry x="550" y="1220" width="20" height="20" as="geometry" />
        </mxCell>
        <mxCell id="PHRj3SiCaP4NHkSzy3cH-62" value="" style="strokeWidth=2;html=1;shape=mxgraph.flowchart.database;whiteSpace=wrap;" vertex="1" parent="1">
          <mxGeometry x="470" y="910" width="30" height="30" as="geometry" />
        </mxCell>
        <mxCell id="PHRj3SiCaP4NHkSzy3cH-63" value="" style="strokeWidth=2;html=1;shape=mxgraph.flowchart.database;whiteSpace=wrap;" vertex="1" parent="1">
          <mxGeometry x="960" y="910" width="30" height="30" as="geometry" />
        </mxCell>
        <mxCell id="PHRj3SiCaP4NHkSzy3cH-64" value="&lt;h1&gt;Circuit Barker&lt;/h1&gt;&lt;div&gt;&lt;span style=&quot;background-color: initial;&quot;&gt;1 health Monitoring&lt;/span&gt;&lt;/div&gt;&lt;div&gt;&lt;span style=&quot;background-color: initial;&quot;&gt;2. try after sometime :&lt;/span&gt;&lt;/div&gt;&lt;div&gt;&lt;span style=&quot;background-color: initial;&quot;&gt;3. after how many retry crircut should close&lt;/span&gt;&lt;/div&gt;" style="text;html=1;strokeColor=none;fillColor=none;spacing=5;spacingTop=-20;whiteSpace=wrap;overflow=hidden;rounded=0;" vertex="1" parent="1">
          <mxGeometry x="40" y="1010" width="260" height="140" as="geometry" />
        </mxCell>
        <mxCell id="PHRj3SiCaP4NHkSzy3cH-67" style="edgeStyle=orthogonalEdgeStyle;rounded=0;orthogonalLoop=1;jettySize=auto;html=1;exitX=1;exitY=0;exitDx=0;exitDy=0;" edge="1" parent="1" source="PHRj3SiCaP4NHkSzy3cH-71">
          <mxGeometry relative="1" as="geometry">
            <mxPoint x="610" y="1450" as="targetPoint" />
            <Array as="points">
              <mxPoint x="340" y="1450" />
              <mxPoint x="340" y="1450" />
            </Array>
          </mxGeometry>
        </mxCell>
        <mxCell id="PHRj3SiCaP4NHkSzy3cH-68" value="Did not answer" style="edgeLabel;html=1;align=center;verticalAlign=middle;resizable=0;points=[];" vertex="1" connectable="0" parent="PHRj3SiCaP4NHkSzy3cH-67">
          <mxGeometry x="0.6054" y="-3" relative="1" as="geometry">
            <mxPoint as="offset" />
          </mxGeometry>
        </mxCell>
        <mxCell id="PHRj3SiCaP4NHkSzy3cH-101" value="CicuitBraker.Execute(Https://kyocera.com/apt/v1/cart/order/id)" style="edgeLabel;html=1;align=center;verticalAlign=middle;resizable=0;points=[];" vertex="1" connectable="0" parent="PHRj3SiCaP4NHkSzy3cH-67">
          <mxGeometry x="-0.5603" y="-1" relative="1" as="geometry">
            <mxPoint x="76" y="-21" as="offset" />
          </mxGeometry>
        </mxCell>
        <mxCell id="PHRj3SiCaP4NHkSzy3cH-65" value="Service" style="rounded=0;whiteSpace=wrap;html=1;" vertex="1" parent="1">
          <mxGeometry x="130" y="1450" width="120" height="330" as="geometry" />
        </mxCell>
        <mxCell id="PHRj3SiCaP4NHkSzy3cH-66" value="MySQl Connector" style="rounded=0;whiteSpace=wrap;html=1;" vertex="1" parent="1">
          <mxGeometry x="614" y="1450" width="120" height="320" as="geometry" />
        </mxCell>
        <mxCell id="PHRj3SiCaP4NHkSzy3cH-69" style="edgeStyle=orthogonalEdgeStyle;rounded=0;orthogonalLoop=1;jettySize=auto;html=1;exitX=1.02;exitY=0.136;exitDx=0;exitDy=0;exitPerimeter=0;entryX=0.002;entryY=0.136;entryDx=0;entryDy=0;entryPerimeter=0;" edge="1" parent="1" source="PHRj3SiCaP4NHkSzy3cH-72">
          <mxGeometry relative="1" as="geometry">
            <mxPoint x="252" y="1480" as="sourcePoint" />
            <mxPoint x="614" y="1480" as="targetPoint" />
          </mxGeometry>
        </mxCell>
        <mxCell id="PHRj3SiCaP4NHkSzy3cH-70" value="Did not answer" style="edgeLabel;html=1;align=center;verticalAlign=middle;resizable=0;points=[];" vertex="1" connectable="0" parent="PHRj3SiCaP4NHkSzy3cH-69">
          <mxGeometry x="0.6054" y="-3" relative="1" as="geometry">
            <mxPoint x="-9" y="7" as="offset" />
          </mxGeometry>
        </mxCell>
        <mxCell id="PHRj3SiCaP4NHkSzy3cH-76" value="Block" style="text;html=1;strokeColor=none;fillColor=none;align=center;verticalAlign=middle;whiteSpace=wrap;rounded=0;" vertex="1" parent="1">
          <mxGeometry x="550" y="1510" width="60" height="30" as="geometry" />
        </mxCell>
        <mxCell id="PHRj3SiCaP4NHkSzy3cH-78" value="" style="edgeStyle=orthogonalEdgeStyle;rounded=0;orthogonalLoop=1;jettySize=auto;html=1;exitX=1.02;exitY=0.136;exitDx=0;exitDy=0;exitPerimeter=0;entryX=0.002;entryY=0.136;entryDx=0;entryDy=0;entryPerimeter=0;" edge="1" parent="1" target="PHRj3SiCaP4NHkSzy3cH-72">
          <mxGeometry relative="1" as="geometry">
            <mxPoint x="252" y="1480" as="sourcePoint" />
            <mxPoint x="614" y="1480" as="targetPoint" />
          </mxGeometry>
        </mxCell>
        <mxCell id="PHRj3SiCaP4NHkSzy3cH-72" value="2" style="ellipse;whiteSpace=wrap;html=1;aspect=fixed;strokeWidth=2;fontFamily=Tahoma;spacingBottom=4;spacingRight=2;strokeColor=#d3d3d3;" vertex="1" parent="1">
          <mxGeometry x="340" y="1470" width="20" height="20" as="geometry" />
        </mxCell>
        <mxCell id="PHRj3SiCaP4NHkSzy3cH-81" value="" style="edgeStyle=orthogonalEdgeStyle;rounded=0;orthogonalLoop=1;jettySize=auto;html=1;exitX=1;exitY=0;exitDx=0;exitDy=0;" edge="1" parent="1" source="PHRj3SiCaP4NHkSzy3cH-65" target="PHRj3SiCaP4NHkSzy3cH-71">
          <mxGeometry relative="1" as="geometry">
            <mxPoint x="250" y="1450" as="sourcePoint" />
            <mxPoint x="610" y="1450" as="targetPoint" />
            <Array as="points" />
          </mxGeometry>
        </mxCell>
        <mxCell id="PHRj3SiCaP4NHkSzy3cH-71" value="1" style="ellipse;whiteSpace=wrap;html=1;aspect=fixed;strokeWidth=2;fontFamily=Tahoma;spacingBottom=4;spacingRight=2;strokeColor=#d3d3d3;" vertex="1" parent="1">
          <mxGeometry x="310" y="1440" width="20" height="20" as="geometry" />
        </mxCell>
        <mxCell id="PHRj3SiCaP4NHkSzy3cH-83" value="3" style="ellipse;whiteSpace=wrap;html=1;aspect=fixed;strokeWidth=2;fontFamily=Tahoma;spacingBottom=4;spacingRight=2;strokeColor=#d3d3d3;" vertex="1" parent="1">
          <mxGeometry x="540" y="1515" width="20" height="20" as="geometry" />
        </mxCell>
        <mxCell id="PHRj3SiCaP4NHkSzy3cH-84" value="Unblock after 5 mins" style="text;html=1;strokeColor=none;fillColor=none;align=center;verticalAlign=middle;whiteSpace=wrap;rounded=0;" vertex="1" parent="1">
          <mxGeometry x="510" y="1540" width="90" height="30" as="geometry" />
        </mxCell>
        <mxCell id="PHRj3SiCaP4NHkSzy3cH-85" value="4" style="ellipse;whiteSpace=wrap;html=1;aspect=fixed;strokeWidth=2;fontFamily=Tahoma;spacingBottom=4;spacingRight=2;strokeColor=#d3d3d3;" vertex="1" parent="1">
          <mxGeometry x="490" y="1545" width="20" height="20" as="geometry" />
        </mxCell>
        <mxCell id="PHRj3SiCaP4NHkSzy3cH-86" style="edgeStyle=orthogonalEdgeStyle;rounded=0;orthogonalLoop=1;jettySize=auto;html=1;entryX=0.018;entryY=0.439;entryDx=0;entryDy=0;entryPerimeter=0;exitX=0.996;exitY=0.429;exitDx=0;exitDy=0;exitPerimeter=0;" edge="1" parent="1" source="PHRj3SiCaP4NHkSzy3cH-65" target="PHRj3SiCaP4NHkSzy3cH-66">
          <mxGeometry relative="1" as="geometry" />
        </mxCell>
        <mxCell id="PHRj3SiCaP4NHkSzy3cH-89" value="Did not answer" style="edgeLabel;html=1;align=center;verticalAlign=middle;resizable=0;points=[];" vertex="1" connectable="0" parent="PHRj3SiCaP4NHkSzy3cH-86">
          <mxGeometry x="0.5444" relative="1" as="geometry">
            <mxPoint as="offset" />
          </mxGeometry>
        </mxCell>
        <mxCell id="PHRj3SiCaP4NHkSzy3cH-88" value="5" style="ellipse;whiteSpace=wrap;html=1;aspect=fixed;strokeWidth=2;fontFamily=Tahoma;spacingBottom=4;spacingRight=2;strokeColor=#d3d3d3;" vertex="1" parent="1">
          <mxGeometry x="400" y="1590" width="20" height="20" as="geometry" />
        </mxCell>
        <mxCell id="PHRj3SiCaP4NHkSzy3cH-90" style="edgeStyle=orthogonalEdgeStyle;rounded=0;orthogonalLoop=1;jettySize=auto;html=1;entryX=0.002;entryY=0.522;entryDx=0;entryDy=0;entryPerimeter=0;exitX=1;exitY=0.5;exitDx=0;exitDy=0;" edge="1" parent="1" source="PHRj3SiCaP4NHkSzy3cH-65" target="PHRj3SiCaP4NHkSzy3cH-66">
          <mxGeometry relative="1" as="geometry">
            <mxPoint x="260" y="1602" as="sourcePoint" />
            <mxPoint x="626" y="1600" as="targetPoint" />
          </mxGeometry>
        </mxCell>
        <mxCell id="PHRj3SiCaP4NHkSzy3cH-91" value="Did not answer" style="edgeLabel;html=1;align=center;verticalAlign=middle;resizable=0;points=[];" vertex="1" connectable="0" parent="PHRj3SiCaP4NHkSzy3cH-90">
          <mxGeometry x="0.5444" relative="1" as="geometry">
            <mxPoint as="offset" />
          </mxGeometry>
        </mxCell>
        <mxCell id="PHRj3SiCaP4NHkSzy3cH-92" value="6" style="ellipse;whiteSpace=wrap;html=1;aspect=fixed;strokeWidth=2;fontFamily=Tahoma;spacingBottom=4;spacingRight=2;strokeColor=#d3d3d3;" vertex="1" parent="1">
          <mxGeometry x="360" y="1610" width="20" height="20" as="geometry" />
        </mxCell>
        <mxCell id="PHRj3SiCaP4NHkSzy3cH-95" value="Block" style="text;html=1;strokeColor=none;fillColor=none;align=center;verticalAlign=middle;whiteSpace=wrap;rounded=0;" vertex="1" parent="1">
          <mxGeometry x="550" y="1630" width="60" height="30" as="geometry" />
        </mxCell>
        <mxCell id="PHRj3SiCaP4NHkSzy3cH-96" value="Unblock after 5 mins" style="text;html=1;strokeColor=none;fillColor=none;align=center;verticalAlign=middle;whiteSpace=wrap;rounded=0;" vertex="1" parent="1">
          <mxGeometry x="510" y="1660" width="90" height="30" as="geometry" />
        </mxCell>
        <mxCell id="PHRj3SiCaP4NHkSzy3cH-97" value="7" style="ellipse;whiteSpace=wrap;html=1;aspect=fixed;strokeWidth=2;fontFamily=Tahoma;spacingBottom=4;spacingRight=2;strokeColor=#d3d3d3;" vertex="1" parent="1">
          <mxGeometry x="530" y="1635" width="20" height="20" as="geometry" />
        </mxCell>
        <mxCell id="PHRj3SiCaP4NHkSzy3cH-98" value="8" style="ellipse;whiteSpace=wrap;html=1;aspect=fixed;strokeWidth=2;fontFamily=Tahoma;spacingBottom=4;spacingRight=2;strokeColor=#d3d3d3;" vertex="1" parent="1">
          <mxGeometry x="490" y="1660" width="20" height="20" as="geometry" />
        </mxCell>
        <mxCell id="PHRj3SiCaP4NHkSzy3cH-99" style="edgeStyle=orthogonalEdgeStyle;rounded=0;orthogonalLoop=1;jettySize=auto;html=1;entryX=-0.037;entryY=0.778;entryDx=0;entryDy=0;entryPerimeter=0;exitX=1;exitY=0.75;exitDx=0;exitDy=0;" edge="1" parent="1" source="PHRj3SiCaP4NHkSzy3cH-65" target="PHRj3SiCaP4NHkSzy3cH-66">
          <mxGeometry relative="1" as="geometry">
            <mxPoint x="260" y="1602" as="sourcePoint" />
            <mxPoint x="626" y="1600" as="targetPoint" />
          </mxGeometry>
        </mxCell>
        <mxCell id="PHRj3SiCaP4NHkSzy3cH-100" value="Did not answer" style="edgeLabel;html=1;align=center;verticalAlign=middle;resizable=0;points=[];" vertex="1" connectable="0" parent="PHRj3SiCaP4NHkSzy3cH-99">
          <mxGeometry x="0.5444" relative="1" as="geometry">
            <mxPoint as="offset" />
          </mxGeometry>
        </mxCell>
      </root>
    </mxGraphModel>
  </diagram>
</mxfile>
